Coordinates
version=1
nRows=21
nColumns=33
inDegrees=yes

Units are S.I. units (second, meters, Newtons, ...)
Angles are in degrees.

endheader
time	ground_thorax_rot_x	ground_thorax_rot_y	ground_thorax_rot_z	ground_thorax_tx	ground_thorax_ty	ground_thorax_tz	clav_prot_r	clav_elev_r	scapula_abduction_r	scapula_elevation_r	scapula_upward_rot_r	scapula_winging_r	shoulder_elv_r	plane_of_elev_r	axial_rot_r	elbow_flexion_r	pro_sup_r	wrist_flex_r	wrist_dev_r	clav_prot_l	clav_elev_l	scapula_abduction_l	scapula_elevation_l	scapula_upward_rot_l	scapula_winging_l	shoulder_elv_l	plane_of_elev_l	axial_rot_l	elbow_flexion_l	pro_sup_l	wrist_flex_l	wrist_dev_l
      2.92000000	     -3.96541753	      2.15149911	     10.83036120	     -0.09927819	      1.02621202	      0.00773479	     11.98542921	    -11.46644684	     25.80414882	     -7.82673759	      9.43743655	     -6.58972188	    -13.98648357	    -66.88452461	    121.93868627	    -74.20245085	   -158.56380776	      9.44332489	      3.68636546	     20.83380430	     -9.43397777	    -30.65599621	     -9.29853976	    -28.63593241	      8.48600347	     62.84119681	     -7.31635867	     10.61907782	     35.90638746	     11.26488842	     27.05036235	     -5.64568250
      2.93000000	     -4.24486615	      2.10060723	     10.62861764	     -0.09881078	      1.02664106	      0.00732464	     12.26793956	    -11.92421784	     26.64445948	     -8.45543482	     10.08630722	     -6.69248152	    -13.10223642	    -65.89148927	    122.07059544	    -72.59515144	   -158.51583590	      8.84205261	      4.09113326	     21.27342896	     -9.87499981	    -31.34451582	     -8.67022358	    -28.17064751	      8.84369976	     63.14460465	     -6.80378802	     10.25892837	     33.76329146	     11.66240134	     26.91427430	     -5.39950624
      2.94000000	     -4.20429471	      2.01869895	     10.67750135	     -0.09850689	      1.02623301	      0.00689922	     12.44778693	    -11.49187642	     27.51407064	     -8.40904301	     11.05507370	     -7.25282473	    -11.71398297	    -64.83009979	    123.29102947	    -70.80359539	   -158.37152809	      7.43084382	      5.84687476	     21.99886284	     -9.93546552	    -32.54896953	     -8.41775513	    -27.83085978	      9.55582119	     62.37475886	     -5.56559479	     11.15963258	     31.22764464	     12.23905819	     26.05910725	     -5.79494093
      2.95000000	     -4.50392894	      1.90135342	     10.62203177	     -0.09806847	      1.02671583	      0.00651679	     12.71591301	    -11.98235934	     28.33087710	     -9.05523308	     11.69705272	     -7.31943906	    -10.97826741	    -63.89870530	    123.38837155	    -68.92490902	   -158.24650930	      6.87831895	      6.14518484	     22.38799516	    -10.33799231	    -33.15434463	     -7.88048136	    -27.47361099	      9.85788826	     62.65846955	     -5.24436895	     10.72912199	     29.25927594	     12.62656628	     25.90953150	     -5.54466702
      2.96000000	     -4.70351309	      1.80064176	     10.53967124	     -0.09752952	      1.02724396	      0.00611236	     12.91403548	    -12.34056513	     29.13112558	     -9.63723649	     12.49927543	     -7.42868822	    -10.22026055	    -62.99593221	    123.53849036	    -66.85674037	   -158.10289253	      6.25701739	      6.53752514	     22.75932591	    -10.68531531	    -33.73400074	     -7.37962187	    -27.08627793	     10.15442137	     62.72737287	     -4.75419256	     10.56329627	     27.22208384	     12.98682349	     25.63870574	     -5.32261537
      2.97000000	     -4.47722911	      1.76354685	     10.41852053	     -0.09720454	      1.02650191	      0.00585103	     13.09141429	    -11.41212446	     30.21212904	     -9.24217217	     13.77013131	     -8.33006163	     -9.03909878	    -61.68978929	    124.56578391	    -64.63459959	   -157.54395142	      5.03988015	      8.06606336	     23.49244840	    -10.61354774	    -34.96282788	     -7.22630039	    -26.71336462	     10.92795704	     61.79895812	     -3.34021275	     11.57307540	     24.90684927	     13.62048609	     24.04378635	     -5.88508471
      2.98000000	     -4.72668682	      1.64067234	     10.43035294	     -0.09683795	      1.02707780	      0.00554526	     13.36701367	    -11.88819409	     31.03597080	     -9.85282219	     14.39000486	     -8.39524272	     -8.34575605	    -60.77224868	    124.51848459	    -62.41578544	   -157.31740954	      4.49458634	      8.24682739	     23.83393271	    -10.98406838	    -35.48766756	     -6.77039644	    -26.45520832	     11.17797375	     62.02678313	     -3.12178533	     11.10529799	     23.20443054	     13.96797838	     23.85917930	     -5.66299954
      2.99000000	     -4.57203977	      1.59608617	     10.31319060	     -0.09659622	      1.02673647	      0.00539147	     13.63045079	    -11.19188484	     32.21441734	     -9.61770925	     15.56712613	     -9.21719482	     -7.52149784	    -59.49920365	    124.94035460	    -59.94312981	   -156.35173011	      3.72081439	      8.90366016	     24.46626587	    -11.07721438	    -36.52565764	     -6.53000912	    -26.18511021	     11.80059042	     61.48095928	     -2.09696178	     11.71953593	     21.21664883	     14.50181144	     22.34693557	     -6.04677347
      3.00000000	     -4.79090243	      1.48935761	     10.33345227	     -0.09621973	      1.02737538	      0.00513797	     13.87852479	    -11.65777286	     33.02134604	    -10.22152142	     16.22450806	     -9.27160292	     -6.88155449	    -58.66025942	    124.80815988	    -57.59604969	   -156.07440783	      3.21014702	      8.97827171	     24.75188925	    -11.39344141	    -36.96077281	     -6.14017556	    -25.95700329	     12.00355287	     61.65756365	     -1.90153489	     11.26432558	     19.68934841	     14.78359720	     22.19306918	     -5.81458743
      3.01000000	     -4.94545324	      1.42226174	     10.20372678	     -0.09578741	      1.02798104	      0.00493291	     14.07416383	    -11.95575572	     33.85744300	    -10.73064332	     17.05439510	     -9.40723790	     -6.19447382	    -57.75345643	    124.70311987	    -55.15102849	   -155.71200956	      2.68772756	      8.99782935	     25.03901327	    -11.62600568	    -37.40972007	     -5.78961922	    -25.65899893	     12.23883179	     61.74724783	     -1.54293069	     11.00029579	     18.17957071	     15.02902808	     21.88286327	     -5.61767309
      3.02000000	     -4.65803266	      1.36941367	     10.12386746	     -0.09557789	      1.02717275	      0.00507500	     14.35857007	    -10.66308847	     35.36791512	    -10.08188434	     18.62672340	    -10.67320823	     -5.99240666	    -56.43377805	    124.76788127	    -52.29766176	   -153.74916379	      2.40270598	      8.45654828	     25.59928253	    -11.52099524	    -38.35166398	     -5.74026295	    -25.42900884	     12.85998142	     60.97313504	     -0.50686915	     11.65450697	     16.56795426	     15.25799474	     19.80365151	     -6.03858049
      3.03000000	     -4.82788217	      1.31245292	     10.12778982	     -0.09530707	      1.02790026	      0.00491559	     14.62265482	    -11.11268142	     36.20684165	    -10.65163896	     19.27944644	    -10.74466113	     -5.37795834	    -55.72316699	    124.47027745	    -49.95798376	   -153.37602003	      1.94706146	      8.39827383	     25.82700799	    -11.78525234	    -38.69327159	     -5.42626231	    -25.25710456	     13.01150358	     61.13196581	     -0.37377820	     11.15434813	     15.37812302	     15.45862699	     19.68464400	     -5.83319582
      3.04000000	     -4.64176370	      1.20271352	     10.05400363	     -0.09510492	      1.02742486	      0.00516770	     15.07001089	    -10.12434697	     37.98437940	    -10.24135505	     20.83680985	    -11.95424313	     -5.55913450	    -54.67830538	    123.79531654	    -47.12410300	   -150.61520949	      2.05854751	      6.93015340	     26.15142466	    -11.71533121	    -39.24176346	     -5.37457996	    -25.05809470	     13.38290867	     60.64510192	      0.22715409	     11.30782309	     14.29947012	     15.45270200	     18.08172160	     -6.04614024
      3.05000000	     -4.76118366	      1.20724737	     10.02873104	     -0.09483166	      1.02815737	      0.00507929	     15.28932439	    -10.52491484	     38.77160258	    -10.76345747	     21.51158759	    -12.02306574	     -4.96161579	    -54.13245442	    123.50104406	    -44.95521429	   -150.24841223	      1.62894603	      6.90801915	     26.31691885	    -11.91940310	    -39.48917341	     -5.12175989	    -24.89965961	     13.49162783	     60.76324679	      0.37270110	     10.77540829	     13.33973027	     15.61348022	     18.03223554	     -5.84799393
      3.06000000	     -4.87980904	      1.24666407	      9.94125689	     -0.09452779	      1.02875004	      0.00499341	     15.47767563	    -10.79671753	     39.56831139	    -11.19516418	     22.26709997	    -12.15100357	     -4.39303423	    -53.57628980	    123.29308295	    -42.77493730	   -149.69152250	      1.20493448	      6.63993177	     26.46871269	    -11.98691151	    -39.73419570	     -4.98266161	    -24.73808625	     13.63443826	     60.80575920	      0.58927290	     10.31414955	     12.60880885	     15.74361933	     17.86126802	     -5.71307742
      3.07000000	     -4.60810184	      1.13761864	      9.89926643	     -0.09426845	      1.02800601	      0.00550453	     15.98203717	     -9.58116563	     41.47212693	    -10.56645484	     23.82198566	    -13.53935315	     -4.82063818	    -52.75598312	    122.42560677	    -40.25385221	   -145.45389019	      1.51840159	      3.79552300	     26.54257102	    -11.73859637	    -39.90593241	     -5.03908263	    -24.42072654	     13.82455861	     60.13977082	      0.97557348	     10.11744610	     12.08542519	     15.57401817	     16.24871986	     -5.82726071
      3.08000000	     -4.69174241	      1.24080648	      9.88667468	     -0.09399800	      1.02864403	      0.00546779	     16.16246455	     -9.87655291	     42.18599993	    -10.97464090	     24.46866927	    -13.63202264	     -4.34742569	    -52.49094742	    122.24771960	    -38.47725505	   -145.03340379	      1.16209236	      3.85285822	     26.63605203	    -11.84074886	    -40.04787162	     -4.91382620	    -24.34400740	     13.89146239	     60.19259262	      1.09029689	      9.58930429	     11.57849699	     15.66654362	     16.22165769	     -5.71924873
      3.09000000	     -4.77062867	      1.33696085	      9.80736797	     -0.09383034	      1.02906272	      0.00549579	     16.35658584	    -10.06015706	     42.96347882	    -11.29964229	     25.16830460	    -13.80352736	     -3.90982759	    -52.20675905	    122.13115078	    -36.77389658	   -144.25688653	      0.80972129	      3.49992487	     26.71880611	    -11.79141516	    -40.19546399	     -4.90249797	    -24.23978154	     14.00175357	     60.19100643	      1.24961904	      9.04237519	     11.26356720	     15.72384617	     16.08006349	     -5.66398435
      3.10000000	     -4.50792284	      1.25358766	      9.89041857	     -0.09341200	      1.02858926	      0.00595643	     16.88323563	     -9.22647412	     44.58361961	    -10.85255402	     26.25641778	    -14.90408917	     -4.24809973	    -51.89719565	    121.39831631	    -35.10628103	   -139.67190225	      0.84840644	      0.83237530	     26.51098953	    -11.57853146	    -39.90512360	     -4.93960946	    -23.90817078	     13.89363581	     59.53734503	      1.27435700	      8.60604539	     11.13267221	     15.25961880	     15.06556089	     -5.71649079
      3.11000000	     -4.51962706	      1.48194626	      9.82083608	     -0.09307951	      1.02903768	      0.00601992	     16.92062005	     -9.37581154	     45.00000000	    -11.10354664	     26.78406693	    -14.93869796	     -3.90721891	    -51.79353195	    121.38145778	    -33.95032857	   -139.24498292	      0.61295816	      0.97511632	     26.54343211	    -11.60301602	    -39.95673207	     -4.89852863	    -23.86947155	     13.91897459	     59.56558565	      1.41325377	      8.12205529	     11.00936899	     15.27789793	     15.04142986	     -5.69086021
      3.12000000	     -4.46433857	      1.82020583	      9.83787365	     -0.09250332	      1.02945119	      0.00609788	     16.79951141	     -9.52857582	     45.00000000	    -11.30336528	     27.06928866	    -14.80453821	     -3.64544464	    -51.72935191	    121.45148938	    -33.15778062	   -138.77253299	      0.41810937	      0.83786382	     26.56599936	    -11.59364911	    -39.99472906	     -4.90683970	    -23.87109981	     13.94634976	     59.41014625	      1.61506316	      7.72145662	     11.06015409	     15.27023027	     15.00693177	     -5.71668571
